<?xml version="1.0" encoding="UTF-8" standalone="no"?>
<!-- Created with Inkscape (http://www.inkscape.org/) -->

<svg
   width="83.136566mm"
   height="69.826599mm"
   viewBox="0 0 83.136566 69.826599"
   version="1.1"
   id="svg5"
   inkscape:version="1.1.1 (3bf5ae0d25, 2021-09-20)"
   sodipodi:docname="PS_Logo.svg"
   xmlns:inkscape="http://www.inkscape.org/namespaces/inkscape"
   xmlns:sodipodi="http://sodipodi.sourceforge.net/DTD/sodipodi-0.dtd"
   xmlns="http://www.w3.org/2000/svg"
   xmlns:svg="http://www.w3.org/2000/svg">
  <sodipodi:namedview
     id="namedview7"
     pagecolor="#ffffff"
     bordercolor="#666666"
     borderopacity="1.0"
     inkscape:pageshadow="2"
     inkscape:pageopacity="0.0"
     inkscape:pagecheckerboard="0"
     inkscape:document-units="mm"
     showgrid="false"
     fit-margin-top="0"
     fit-margin-left="0"
     fit-margin-right="0"
     fit-margin-bottom="0"
     inkscape:zoom="0.74118967"
     inkscape:cx="-6.0713204"
     inkscape:cy="459.39658"
     inkscape:window-width="1920"
     inkscape:window-height="1017"
     inkscape:window-x="-8"
     inkscape:window-y="-8"
     inkscape:window-maximized="1"
     inkscape:current-layer="layer1" />
  <defs
     id="defs2" />
  <g
     inkscape:label="Ebene 1"
     inkscape:groupmode="layer"
     id="layer1">
    <g
       transform="matrix(0.03527778,0,0,-0.03527778,-191.28184,291.57609)"
       fill="#000000"
       stroke="none"
       id="g19">
      <path
         d="m 6740,8259 c -14,-4 -51,-7 -84,-8 -53,-1 -62,-4 -90,-35 -26,-27 -41,-34 -84,-38 -114,-11 -141,-108 -41,-147 21,-8 26,-15 22,-35 -8,-40 4,-73 43,-116 24,-26 48,-42 72,-46 20,-4 50,-15 66,-24 21,-12 55,-18 104,-18 41,-1 80,-6 87,-12 32,-27 76,-30 121,-9 42,20 46,20 91,5 25,-9 55,-16 65,-16 11,0 20,-10 23,-27 4,-16 15,-55 26,-88 32,-95 33,-104 16,-163 -22,-79 -51,-335 -43,-383 3,-21 3,-39 0,-39 -4,0 -30,20 -58,44 -95,81 -231,136 -336,136 -66,0 -171,-33 -251,-79 l -71,-41 -56,51 c -68,61 -215,135 -298,150 -72,13 -116,7 -212,-31 -74,-30 -74,-30 -129,-14 -99,29 -196,-2 -232,-75 -45,-88 -77,-300 -67,-441 9,-124 38,-193 97,-239 26,-20 53,-50 58,-66 18,-51 70,-104 135,-138 58,-30 66,-32 166,-31 81,0 118,6 163,22 74,27 179,102 216,153 26,35 30,37 42,23 19,-23 124,-90 184,-118 101,-47 186,-61 370,-60 193,0 321,22 422,70 46,22 78,29 158,34 140,9 226,48 308,139 41,45 44,59 23,100 -13,24 -13,36 -2,77 28,109 -6,374 -74,574 -28,84 -154,372 -209,480 -15,30 -34,73 -41,95 -18,58 -58,124 -99,168 -37,40 -174,119 -226,131 -16,4 -70,25 -120,46 -93,39 -199,55 -255,39 z m 85,-29 c 15,0 16,-3 7,-12 -27,-27 -12,-38 26,-18 43,23 41,23 209,-39 224,-82 289,-141 354,-316 12,-33 26,-65 31,-71 5,-7 22,-47 37,-91 16,-43 40,-103 54,-133 45,-99 105,-264 128,-350 22,-85 38,-303 31,-411 l -4,-48 -41,20 c -22,12 -68,23 -101,26 l -61,4 75,-38 c 58,-30 85,-52 119,-96 28,-35 41,-62 37,-72 -3,-9 -44,-34 -90,-55 -94,-43 -216,-66 -298,-55 -71,10 -208,50 -257,74 -24,13 -45,20 -48,17 -14,-13 64,-67 144,-99 l 86,-34 -39,-13 c -21,-7 -44,-17 -50,-22 -7,-5 -59,-16 -115,-24 -144,-22 -391,-15 -469,13 -80,29 -196,101 -251,155 l -47,47 -26,-43 c -52,-88 -135,-144 -257,-172 -132,-30 -270,-4 -314,59 -21,29 -20,31 21,46 48,17 202,147 246,207 37,50 118,205 118,224 0,21 -18,0 -74,-84 -62,-93 -165,-194 -230,-226 -97,-47 -222,-11 -279,80 -20,31 -22,47 -21,155 4,356 109,457 351,335 46,-23 93,-40 105,-38 19,3 16,7 -22,25 -51,25 -96,61 -87,70 13,12 174,21 227,11 98,-17 232,-68 302,-115 l 38,-26 -50,-54 c -28,-30 -50,-59 -50,-64 0,-5 30,14 66,43 110,88 126,98 212,125 112,35 226,29 352,-17 120,-43 225,-125 263,-204 16,-32 31,-55 34,-52 3,3 0,60 -7,126 -15,135 -9,269 16,403 l 17,89 48,-51 c 27,-28 53,-51 59,-51 6,0 -17,41 -51,91 -67,98 -99,182 -99,259 0,40 6,57 35,94 41,55 25,63 -30,15 -43,-38 -96,-50 -167,-36 -74,14 -80,20 -60,67 10,22 22,40 29,40 13,0 56,51 48,58 -2,3 -16,-3 -31,-13 -21,-14 -31,-15 -51,-6 -13,6 -25,11 -27,11 -2,0 -1,-20 1,-44 3,-26 1,-46 -6,-50 -16,-10 -14,-37 5,-57 15,-17 14,-19 -12,-26 -92,-24 -120,56 -69,193 14,37 23,69 21,72 -3,2 -16,-8 -30,-23 -32,-34 -56,-106 -56,-167 0,-41 -3,-48 -19,-48 -20,0 -71,53 -71,73 0,35 32,123 60,164 20,32 27,49 19,52 -21,7 -68,-62 -89,-130 -24,-80 -25,-98 -4,-127 20,-29 14,-35 -21,-26 -69,17 -84,121 -35,236 34,79 36,90 16,82 -8,-3 -29,-40 -47,-82 -27,-66 -31,-85 -26,-138 5,-70 -3,-74 -55,-26 -44,41 -44,71 -2,179 46,119 67,143 128,143 26,0 46,-5 49,-12 3,-10 8,-9 18,3 18,21 39,29 64,24 11,-3 29,-5 40,-5 z m -315,-80 c 4,0 1,-22 -8,-50 -13,-41 -20,-50 -39,-50 -32,0 -63,33 -56,60 6,24 59,52 81,45 8,-3 17,-5 22,-5 z"
         id="path9" />
      <path
         d="m 6944,8147 c -36,-31 -27,-44 15,-23 22,12 36,13 56,6 40,-15 51,-12 30,9 -34,33 -68,36 -101,8 z"
         id="path11" />
      <path
         d="m 6380,6841 c 0,-6 21,-32 47,-57 127,-121 318,-148 488,-68 51,24 121,81 112,90 -2,2 -26,-7 -54,-20 -114,-56 -261,-71 -378,-40 -56,14 -86,28 -177,83 -21,13 -38,18 -38,12 z"
         id="path13" />
      <path
         d="m 5618,7920 c -26,-4 -52,-11 -57,-15 -18,-11 -12,-37 9,-42 41,-11 36,-86 -19,-299 -20,-73 -24,-107 -17,-113 20,-16 58,-23 91,-17 l 33,7 7,73 7,73 74,16 c 121,26 186,87 188,173 2,78 -85,142 -202,149 -37,2 -88,0 -114,-5 z m 173,-89 c 64,-65 21,-160 -83,-185 -27,-6 -28,-5 -28,33 0,21 7,71 16,110 15,64 18,71 41,71 14,0 37,-13 54,-29 z"
         id="path15" />
      <path
         d="m 6157,7914 c -55,-17 -147,-98 -147,-130 0,-40 39,-83 117,-127 110,-64 122,-73 116,-96 -8,-30 -47,-62 -78,-64 -25,-2 -32,5 -58,56 -26,48 -34,57 -57,57 -31,0 -80,-43 -80,-71 0,-19 42,-55 100,-85 107,-55 300,33 300,136 0,32 -54,86 -125,125 -130,72 -139,89 -75,131 48,32 67,27 87,-26 15,-37 19,-40 53,-40 39,0 70,23 70,52 0,23 -64,75 -107,87 -47,14 -57,13 -116,-5 z"
         id="path17" />
    </g>
  </g>
</svg>
