<?xml version="1.0" encoding="UTF-8" standalone="no"?>
<!-- Created with Inkscape (http://www.inkscape.org/) -->

<svg
   width="285.3118mm"
   height="70.532158mm"
   viewBox="0 0 285.3118 70.532158"
   version="1.1"
   id="svg46"
   inkscape:version="1.1.1 (3bf5ae0d25, 2021-09-20)"
   sodipodi:docname="PS_Logo_doublebizeps.svg"
   xmlns:inkscape="http://www.inkscape.org/namespaces/inkscape"
   xmlns:sodipodi="http://sodipodi.sourceforge.net/DTD/sodipodi-0.dtd"
   xmlns="http://www.w3.org/2000/svg"
   xmlns:svg="http://www.w3.org/2000/svg">
  <sodipodi:namedview
     id="namedview48"
     pagecolor="#ffffff"
     bordercolor="#666666"
     borderopacity="1.0"
     inkscape:pageshadow="2"
     inkscape:pageopacity="0.0"
     inkscape:pagecheckerboard="0"
     inkscape:document-units="mm"
     showgrid="false"
     fit-margin-top="0"
     fit-margin-left="0"
     fit-margin-right="0"
     fit-margin-bottom="0"
     inkscape:zoom="0.74118967"
     inkscape:cx="483.68186"
     inkscape:cy="561.93443"
     inkscape:window-width="1920"
     inkscape:window-height="1017"
     inkscape:window-x="-8"
     inkscape:window-y="-8"
     inkscape:window-maximized="1"
     inkscape:current-layer="layer1" />
  <defs
     id="defs43" />
  <g
     inkscape:label="Ebene 1"
     inkscape:groupmode="layer"
     id="layer1">
    <g
       transform="matrix(0.03527778,0,0,-0.03527778,-92.823286,303.92332)"
       fill="#000000"
       stroke="none"
       id="g78">
      <path
         d="m 9680,8609 c -14,-4 -51,-7 -84,-8 -53,-1 -62,-4 -90,-35 -26,-27 -41,-34 -84,-38 -114,-11 -141,-108 -41,-147 21,-8 26,-15 22,-35 -8,-40 4,-73 43,-116 24,-26 48,-42 72,-46 20,-4 50,-15 66,-24 21,-12 55,-18 104,-18 41,-1 80,-6 87,-12 32,-27 76,-30 121,-9 42,20 46,20 91,5 25,-9 55,-16 65,-16 11,0 20,-10 23,-27 4,-16 15,-55 26,-88 32,-95 33,-104 16,-163 -22,-79 -51,-335 -43,-383 3,-21 3,-39 0,-39 -4,0 -30,20 -58,44 -95,81 -231,136 -336,136 -66,0 -171,-33 -251,-79 l -71,-41 -56,51 c -68,61 -215,135 -298,150 -72,13 -116,7 -212,-31 -74,-30 -74,-30 -129,-14 -99,29 -196,-2 -232,-75 -45,-88 -77,-300 -67,-441 9,-124 38,-193 97,-239 26,-20 53,-50 58,-66 18,-51 70,-104 135,-138 58,-30 66,-32 166,-31 81,0 118,6 163,22 74,27 179,102 216,153 26,35 30,37 42,23 19,-23 124,-90 184,-118 101,-47 186,-61 370,-60 193,0 321,22 422,70 46,22 78,29 158,34 140,9 226,48 308,139 41,45 44,59 23,100 -13,24 -13,36 -2,77 28,109 -6,374 -74,574 -28,84 -154,372 -209,480 -15,30 -34,73 -41,95 -18,58 -58,124 -99,168 -37,40 -174,119 -226,131 -16,4 -70,25 -120,46 -93,39 -199,55 -255,39 z m 85,-29 c 15,0 16,-3 7,-12 -27,-27 -12,-38 26,-18 43,23 41,23 209,-39 224,-82 289,-141 354,-316 12,-33 26,-65 31,-71 5,-7 22,-47 37,-91 16,-43 40,-103 54,-133 45,-99 105,-264 128,-350 22,-85 38,-303 31,-411 l -4,-48 -41,20 c -22,12 -68,23 -101,26 l -61,4 75,-38 c 58,-30 85,-52 119,-96 28,-35 41,-62 37,-72 -3,-9 -44,-34 -90,-55 -94,-43 -216,-66 -298,-55 -71,10 -208,50 -257,74 -24,13 -45,20 -48,17 -14,-13 64,-67 144,-99 l 86,-34 -39,-13 c -21,-7 -44,-17 -50,-22 -7,-5 -59,-16 -115,-24 -144,-22 -391,-15 -469,13 -80,29 -196,101 -251,155 l -47,47 -26,-43 c -52,-88 -135,-144 -257,-172 -132,-30 -270,-4 -314,59 -21,29 -20,31 21,46 48,17 202,147 246,207 37,50 118,205 118,224 0,21 -18,0 -74,-84 -62,-93 -165,-194 -230,-226 -97,-47 -222,-11 -279,80 -20,31 -22,47 -21,155 4,356 109,457 351,335 46,-23 93,-40 105,-38 19,3 16,7 -22,25 -51,25 -96,61 -87,70 13,12 174,21 227,11 98,-17 232,-68 302,-115 l 38,-26 -50,-54 c -28,-30 -50,-59 -50,-64 0,-5 30,14 66,43 110,88 126,98 212,125 112,35 226,29 352,-17 120,-43 225,-125 263,-204 16,-32 31,-55 34,-52 3,3 0,60 -7,126 -15,135 -9,269 16,403 l 17,89 48,-51 c 27,-28 53,-51 59,-51 6,0 -17,41 -51,91 -67,98 -99,182 -99,259 0,40 6,57 35,94 41,55 25,63 -30,15 -43,-38 -96,-50 -167,-36 -74,14 -80,20 -60,67 10,22 22,40 29,40 13,0 56,51 48,58 -2,3 -16,-3 -31,-13 -21,-14 -31,-15 -51,-6 -13,6 -25,11 -27,11 -2,0 -1,-20 1,-44 3,-26 1,-46 -6,-50 -16,-10 -14,-37 5,-57 15,-17 14,-19 -12,-26 -92,-24 -120,56 -69,193 14,37 23,69 21,72 -3,2 -16,-8 -30,-23 -32,-34 -56,-106 -56,-167 0,-41 -3,-48 -19,-48 -20,0 -71,53 -71,73 0,35 32,123 60,164 20,32 27,49 19,52 -21,7 -68,-62 -89,-130 -24,-80 -25,-98 -4,-127 20,-29 14,-35 -21,-26 -69,17 -84,121 -35,236 34,79 36,90 16,82 -8,-3 -29,-40 -47,-82 -27,-66 -31,-85 -26,-138 5,-70 -3,-74 -55,-26 -44,41 -44,71 -2,179 46,119 67,143 128,143 26,0 46,-5 49,-12 3,-10 8,-9 18,3 18,21 39,29 64,24 11,-3 29,-5 40,-5 z m -315,-80 c 4,0 1,-22 -8,-50 -13,-41 -20,-50 -39,-50 -32,0 -63,33 -56,60 6,24 59,52 81,45 8,-3 17,-5 22,-5 z"
         id="path50" />
      <path
         d="m 9884,8497 c -36,-31 -27,-44 15,-23 22,12 36,13 56,6 40,-15 51,-12 30,9 -34,33 -68,36 -101,8 z"
         id="path52" />
      <path
         d="m 9320,7191 c 0,-6 21,-32 47,-57 127,-121 318,-148 488,-68 51,24 121,81 112,90 -2,2 -26,-7 -54,-20 -114,-56 -261,-71 -378,-40 -56,14 -86,28 -177,83 -21,13 -38,18 -38,12 z"
         id="path54" />
      <path
         d="m 3555,8590 c -45,-4 -95,-18 -138,-38 -37,-17 -89,-38 -116,-46 -72,-21 -191,-90 -232,-133 -41,-44 -81,-110 -99,-168 -7,-22 -26,-65 -41,-95 -55,-108 -181,-396 -209,-480 -68,-200 -102,-465 -74,-574 11,-41 11,-53 -2,-77 -21,-41 -18,-55 23,-100 82,-91 168,-130 308,-139 80,-5 112,-12 158,-34 101,-48 229,-70 422,-70 184,-1 269,13 370,60 60,28 165,95 184,118 12,14 16,12 42,-23 37,-51 142,-126 216,-153 45,-16 82,-22 163,-22 100,-1 108,1 166,31 65,34 117,87 135,138 5,16 32,46 58,66 59,46 88,115 97,239 10,141 -22,353 -67,441 -36,73 -133,104 -232,75 -55,-16 -55,-16 -129,14 -96,38 -140,44 -212,31 -83,-15 -230,-89 -298,-150 l -56,-51 -71,41 c -80,46 -185,79 -251,79 -105,0 -241,-55 -336,-136 -28,-24 -54,-44 -58,-44 -3,0 -3,18 0,39 8,48 -21,304 -43,383 -17,59 -16,68 16,163 11,33 22,72 26,88 3,17 12,27 23,27 10,0 40,7 65,16 45,15 49,15 91,-5 45,-21 89,-18 121,9 7,6 46,11 87,12 49,0 83,6 104,18 16,9 46,20 66,24 24,4 48,20 72,46 39,43 51,76 43,116 -4,20 1,27 22,35 40,16 61,39 61,69 0,41 -40,72 -102,78 -44,4 -58,10 -79,35 -24,28 -34,32 -100,38 -41,3 -85,9 -99,11 -14,3 -56,2 -95,-2 z m 134,-48 c 10,-12 15,-14 18,-4 3,7 23,12 49,12 61,0 82,-24 128,-143 42,-108 42,-138 -2,-179 -52,-48 -60,-44 -55,26 5,53 1,72 -26,138 -18,42 -39,79 -47,82 -20,8 -18,-3 16,-82 49,-115 34,-219 -35,-236 -35,-9 -41,-3 -21,26 21,29 20,47 -4,127 -21,68 -68,137 -89,130 -8,-3 -1,-20 19,-52 28,-41 60,-129 60,-164 0,-20 -51,-73 -71,-73 -16,0 -19,7 -19,48 0,61 -24,133 -56,167 -14,15 -27,25 -30,23 -2,-3 7,-35 21,-72 51,-137 23,-217 -69,-193 -26,7 -27,9 -12,26 19,20 21,47 5,57 -7,4 -9,24 -6,50 2,24 3,44 1,44 -2,0 -14,-5 -27,-11 -20,-9 -30,-8 -51,6 -15,10 -29,16 -31,13 -8,-7 35,-58 48,-58 7,0 19,-18 29,-40 20,-47 14,-53 -60,-67 -71,-14 -124,-2 -167,36 -55,48 -71,40 -30,-15 29,-37 35,-54 35,-94 0,-77 -32,-161 -99,-259 -34,-50 -57,-91 -51,-91 6,0 32,23 59,51 l 48,51 17,-89 c 25,-134 31,-268 16,-403 -7,-66 -10,-123 -7,-126 3,-3 18,20 34,52 38,79 143,161 263,204 126,46 240,52 352,17 86,-27 102,-37 212,-125 36,-29 66,-48 66,-43 0,5 -22,34 -50,64 l -50,54 38,26 c 70,47 204,98 302,115 53,10 214,1 227,-11 9,-9 -36,-45 -87,-70 -38,-18 -41,-22 -22,-25 12,-2 59,15 105,38 242,122 347,21 351,-335 1,-108 -1,-124 -21,-155 -57,-91 -182,-127 -279,-80 -65,32 -168,133 -230,226 -56,84 -74,105 -74,84 0,-19 81,-174 118,-224 44,-60 198,-190 246,-207 41,-15 42,-17 21,-46 -44,-63 -182,-89 -314,-59 -122,28 -205,84 -257,172 l -26,43 -47,-47 c -55,-54 -171,-126 -251,-155 -78,-28 -325,-35 -469,-13 -56,8 -108,19 -115,24 -6,5 -29,15 -50,22 l -39,13 86,34 c 80,32 158,86 144,99 -3,3 -24,-4 -48,-17 -49,-24 -186,-64 -257,-74 -82,-11 -204,12 -298,55 -46,21 -87,46 -90,55 -4,10 9,37 37,72 34,44 61,66 119,96 l 75,38 -61,-4 c -33,-3 -79,-14 -101,-26 l -41,-20 -4,48 c -7,108 9,326 31,411 23,86 83,251 128,350 14,30 38,90 54,133 15,44 32,84 37,91 5,6 19,38 31,71 65,175 130,234 354,316 168,62 166,62 209,39 30,-16 38,-17 38,-5 0,7 -6,17 -12,22 -9,5 -3,10 17,14 40,9 77,2 94,-19 z m 275,-66 c 41,-17 52,-50 25,-77 -10,-10 -29,-19 -42,-19 -19,0 -26,9 -39,49 -15,46 -15,50 1,54 9,3 17,5 19,6 1,0 18,-5 36,-13 z"
         id="path56" />
      <path
         d="m 3395,8490 c -25,-9 -52,-40 -37,-40 6,0 22,4 37,10 20,7 34,6 56,-6 41,-21 51,-8 16,22 -30,26 -40,28 -72,14 z"
         id="path58" />
      <path
         d="m 3960,7140 c -90,-56 -141,-71 -250,-77 -105,-6 -184,9 -273,53 -28,13 -52,22 -54,20 -9,-9 61,-66 112,-90 80,-38 147,-50 238,-43 88,7 147,30 219,85 46,35 84,79 76,88 -2,2 -33,-14 -68,-36 z"
         id="path60" />
      <path
         d="m 5312,7521 c -46,-12 -59,-26 -42,-46 7,-8 19,-15 28,-15 21,0 11,-93 -27,-244 -17,-65 -28,-123 -25,-127 9,-15 75,-22 100,-10 21,9 24,17 24,63 0,29 4,58 8,64 4,6 36,17 71,24 181,38 233,197 88,272 -46,24 -167,34 -225,19 z m 157,-66 c 16,-8 34,-27 40,-43 24,-58 -11,-115 -82,-137 -46,-14 -47,-14 -47,8 0,12 7,59 16,105 18,88 23,93 73,67 z"
         id="path62" />
      <path
         d="m 6485,7506 c -55,-25 -115,-86 -115,-116 0,-32 49,-79 125,-121 111,-61 117,-77 45,-126 -40,-28 -52,-21 -84,47 -14,29 -29,46 -42,48 -23,3 -84,-42 -84,-62 0,-17 48,-60 90,-82 96,-49 253,13 284,113 10,32 -41,83 -139,141 -44,26 -81,54 -83,63 -3,18 41,55 73,61 15,2 25,-7 40,-39 17,-36 25,-42 51,-43 32,0 64,25 64,52 0,34 -88,88 -142,88 -18,0 -56,-11 -83,-24 z"
         id="path64" />
      <path
         d="m 7981,7519 c -22,-9 -23,-13 -17,-64 l 6,-55 h -45 c -47,0 -63,-14 -52,-44 4,-10 16,-12 46,-6 30,5 41,4 41,-5 0,-7 -13,-58 -30,-113 -16,-55 -27,-107 -24,-116 3,-8 22,-22 41,-31 30,-15 42,-15 76,-5 60,18 117,57 117,80 0,32 -25,34 -67,6 -21,-14 -42,-26 -47,-26 -8,0 -3,87 10,188 l 6,42 h 48 c 31,0 54,6 65,16 27,28 12,39 -48,36 l -55,-2 14,46 c 7,26 11,50 8,55 -7,12 -62,10 -93,-2 z"
         id="path66" />
      <path
         d="m 5703,7395 c -37,-16 -36,-14 -23,-70 8,-33 5,-55 -16,-123 -13,-45 -27,-88 -30,-96 -7,-19 57,-40 95,-31 26,6 29,10 35,67 3,33 6,75 6,93 0,26 8,39 36,60 35,27 35,27 41,6 7,-26 40,-36 76,-22 35,14 36,49 2,89 -39,46 -57,46 -106,-4 -24,-24 -48,-44 -53,-44 -6,0 -5,5 2,12 7,7 12,27 12,45 0,28 -4,33 -22,33 -13,-1 -38,-7 -55,-15 z"
         id="path68" />
      <path
         d="m 6095,7395 c -139,-65 -169,-234 -53,-305 55,-34 126,-19 189,37 50,45 69,81 69,128 0,45 -12,69 -58,118 -30,31 -43,37 -77,37 -22,-1 -53,-7 -70,-15 z m 87,-76 c 30,-58 24,-104 -20,-151 -27,-29 -44,-39 -56,-35 -23,9 -39,55 -33,99 6,41 63,131 80,125 7,-2 20,-19 29,-38 z"
         id="path70" />
      <path
         d="m 6814,7400 c -32,-13 -35,-22 -23,-82 13,-63 -4,-175 -48,-311 -24,-77 -24,-81 -7,-94 19,-14 82,-17 100,-5 6,4 14,30 18,57 17,132 14,124 48,114 54,-15 154,47 198,125 22,38 26,54 20,77 -20,70 -58,106 -132,123 -22,5 -32,-1 -66,-39 -22,-25 -43,-45 -47,-45 -4,0 -2,6 4,14 7,8 11,27 9,43 -2,22 -9,28 -28,30 -14,1 -35,-2 -46,-7 z m 197,-112 c 15,-37 -2,-85 -45,-127 -28,-27 -40,-32 -60,-27 -24,6 -26,11 -26,63 0,54 3,60 41,99 36,36 44,41 60,31 10,-6 23,-24 30,-39 z"
         id="path72" />
      <path
         d="m 7254,7378 c -64,-44 -110,-128 -99,-184 8,-44 67,-109 109,-120 65,-16 168,42 206,117 25,48 25,80 0,128 -48,96 -128,117 -216,59 z m 110,-40 c 20,-28 30,-81 22,-113 -8,-30 -63,-95 -81,-95 -37,0 -59,94 -34,143 18,35 59,87 69,87 5,0 16,-10 24,-22 z"
         id="path74" />
      <path
         d="m 7593,7395 c -37,-16 -36,-14 -23,-70 8,-33 5,-55 -16,-123 -13,-45 -27,-88 -30,-96 -7,-19 57,-40 95,-31 26,6 29,10 35,67 3,33 6,75 6,93 0,26 8,39 36,60 35,27 35,27 41,6 7,-26 40,-36 76,-22 35,14 36,49 2,89 -39,46 -57,46 -106,-4 -24,-24 -48,-44 -53,-44 -6,0 -5,5 2,12 7,7 12,27 12,45 0,28 -4,33 -22,33 -13,-1 -38,-7 -55,-15 z"
         id="path76" />
    </g>
  </g>
</svg>
